<svg width="200" height="200" viewBox="0 0 200 200" fill="none" xmlns="http://www.w3.org/2000/svg">
<rect width="200" height="200" rx="99" fill="white"/>
<rect width="200" height="200" rx="99" fill="url(#paint0_linear_1826_601)"/>
<path fill-rule="evenodd" clip-rule="evenodd" d="M58 58.5C58 58.2239 58.2239 58 58.5 58H141.5C141.776 58 142 58.2239 142 58.5V72.6829C142 73.1283 141.461 73.3514 141.146 73.0364L138.224 70.1136C138.028 69.9183 137.712 69.9183 137.516 70.1136L121.07 86.56L104.27 103.36L87.8235 119.806C87.6283 120.002 87.3117 120.002 87.1164 119.806L70.67 103.36L62.4836 95.1736C62.2883 94.9783 61.9717 94.9783 61.7765 95.1736L58.8536 98.0964C58.5386 98.4114 58 98.1883 58 97.7429V58.5ZM70.67 136.96L74.8564 141.146C75.1714 141.461 74.9483 142 74.5029 142H58.5C58.2239 142 58 141.776 58 141.5V125.497C58 125.052 58.5386 124.829 58.8536 125.144L70.67 136.96ZM104.27 136.96L121.07 120.16L137.87 103.36L141.146 100.084C141.461 99.7686 142 99.9917 142 100.437V141.5C142 141.776 141.776 142 141.5 142H100.437C99.9917 142 99.7686 141.461 100.084 141.146L104.27 136.96Z" fill="white"/>
<defs>
<linearGradient id="paint0_linear_1826_601" x1="100" y1="0" x2="100" y2="200" gradientUnits="userSpaceOnUse">
<stop stop-color="#0053D6"/>
<stop offset="1" stop-color="#013689"/>
</linearGradient>
</defs>
</svg>
