<svg width="228" height="25" viewBox="0 0 228 25" fill="none" xmlns="http://www.w3.org/2000/svg">
<g id="logo">
<path id="Vector" fill-rule="evenodd" clip-rule="evenodd" d="M0.358398 1C0.358398 0.723858 0.582256 0.5 0.858398 0.5H23.8584C24.1345 0.5 24.3584 0.723858 24.3584 1V3.86C24.3584 4.29545 23.8319 4.51352 23.524 4.20561C23.3331 4.01474 23.0237 4.01474 22.8328 4.20561L18.3784 8.66L13.5784 13.46L9.13195 17.9064C8.93668 18.1017 8.6201 18.1017 8.42484 17.9064L3.97841 13.46L1.88402 11.3656C1.69314 11.1747 1.38367 11.1747 1.19279 11.3656C0.884876 11.6735 0.358398 11.4554 0.358398 11.02V1ZM3.97841 23.06L4.56485 23.6464C4.87983 23.9614 4.65675 24.5 4.2113 24.5H0.858398C0.582256 24.5 0.358398 24.2761 0.358398 24V20.6471C0.358398 20.2016 0.896968 19.9786 1.21195 20.2935L3.97841 23.06ZM13.5784 23.06L18.3784 18.26L23.1784 13.46L23.5048 13.1336C23.8198 12.8186 24.3584 13.0417 24.3584 13.4871V24C24.3584 24.2761 24.1345 24.5 23.8584 24.5H13.3455C12.9 24.5 12.677 23.9614 12.9919 23.6464L13.5784 23.06Z" fill="#0052D5"/>
<path id="Vector_2" d="M38.7627 24.1799V21.5199L41.1127 21.0649V5.20495L38.7627 4.74995V2.07495H41.1127H49.2777C50.9727 2.07495 52.4277 2.36995 53.6527 2.96495C54.8727 3.55995 55.8177 4.37996 56.4777 5.43996C57.1327 6.49496 57.4577 7.72995 57.4577 9.13995C57.4577 10.54 57.1327 11.775 56.4777 12.83C55.8177 13.89 54.8727 14.7099 53.6527 15.2949C52.4277 15.8749 50.9727 16.1649 49.2777 16.1649H45.5477V21.0649L47.9177 21.5199V24.1799H38.7627ZM45.5477 12.75H49.2777C50.5177 12.75 51.4527 12.415 52.0827 11.74C52.7127 11.065 53.0327 10.2099 53.0327 9.16995C53.0327 8.09995 52.7127 7.22495 52.0827 6.52995C51.4527 5.83495 50.5177 5.49495 49.2777 5.49495H45.5477V12.75Z" fill="#0052D5"/>
<path id="1" d="M66.6128 24.4999C64.9978 24.4949 63.6028 24.1449 62.4428 23.4349C61.2778 22.7299 60.3878 21.7449 59.7728 20.4849C59.1528 19.2199 58.8428 17.775 58.8428 16.13V15.815C58.8428 14.185 59.1528 12.7399 59.7728 11.4799C60.3878 10.2199 61.2778 9.23496 62.4328 8.51996C63.5928 7.80496 64.9778 7.44995 66.5828 7.44995C68.2178 7.44995 69.6028 7.80496 70.7578 8.51996C71.9178 9.23496 72.8028 10.22 73.4178 11.475C74.0328 12.73 74.3478 14.175 74.3478 15.815V16.13C74.3478 17.775 74.0328 19.2199 73.4178 20.4849C72.8028 21.7449 71.9178 22.7299 70.7578 23.4349C69.6028 24.1449 68.2278 24.4949 66.6128 24.4999ZM66.6128 21.095C67.3878 21.095 68.0128 20.89 68.5028 20.475C68.9828 20.06 69.3478 19.4799 69.5778 18.7399C69.8078 17.9949 69.9278 17.13 69.9278 16.13V15.815C69.9278 14.845 69.8078 13.99 69.5778 13.24C69.3478 12.5 68.9828 11.9149 68.4928 11.4949C67.9978 11.0749 67.3678 10.8699 66.5828 10.8699C65.8278 10.8699 65.2028 11.0749 64.7028 11.4949C64.2078 11.9149 63.8478 12.5 63.6228 13.24C63.3928 13.99 63.2778 14.845 63.2778 15.815V16.13C63.2778 17.13 63.3928 17.9999 63.6228 18.7449C63.8478 19.4949 64.2078 20.0749 64.7028 20.4849C65.2028 20.8949 65.8378 21.095 66.6128 21.095Z" fill="#0052D5"/>
<path id="2" d="M76.6528 24.1799V21.5199L78.7778 21.065V10.8849L76.4229 10.4299V7.75496H82.9028L83.0729 9.78995L83.1029 10.155C83.5079 9.26495 84.0079 8.58995 84.6029 8.13495C85.2029 7.67495 85.9179 7.44995 86.7429 7.44995C87.0079 7.44995 87.2978 7.47496 87.6078 7.51996C87.9278 7.56496 88.2079 7.62496 88.4429 7.68996L87.9779 11.7749L85.7778 11.655C85.1478 11.625 84.6428 11.735 84.2478 11.975C83.8578 12.215 83.5129 12.5699 83.2129 13.0249V21.065L85.3329 21.5199V24.1799H76.6528Z" fill="#0052D5"/>
<path id="3" d="M96.5827 24.5001C95.0577 24.4951 93.8777 24.0751 93.0577 23.2351C92.2277 22.3951 91.8177 21.0651 91.8177 19.2451V10.8701H89.5527V7.75511H91.8177V3.73511H96.2327V7.75511H99.2527V10.8701H96.2327V19.2301C96.2327 19.8701 96.3677 20.3251 96.6377 20.6001C96.9027 20.8701 97.2727 21.0101 97.7327 21.0101C97.9777 21.0101 98.2427 20.9851 98.5277 20.9501C98.8077 20.9201 99.0527 20.8801 99.2527 20.8351L99.6377 24.0451C99.1777 24.1751 98.6827 24.2851 98.1527 24.3701C97.6177 24.4551 97.0977 24.4951 96.5827 24.5001Z" fill="#0052D5"/>
<path id="4" d="M106.783 24.4999C105.153 24.4949 103.858 24.0599 102.893 23.1849C101.938 22.3099 101.453 21.1149 101.453 19.6099C101.453 18.5799 101.733 17.67 102.293 16.895C102.858 16.11 103.688 15.4999 104.788 15.0549C105.883 14.6099 107.238 14.3849 108.848 14.3849H111.018V13.175C111.018 12.385 110.788 11.745 110.323 11.25C109.863 10.765 109.173 10.515 108.253 10.515C107.783 10.515 107.353 10.58 106.973 10.69C106.593 10.805 106.253 10.97 105.948 11.185L105.598 13.3549H102.408L102.353 9.08995C103.213 8.60495 104.138 8.20995 105.143 7.90495C106.143 7.60495 107.263 7.44995 108.498 7.44995C110.643 7.44995 112.338 7.94996 113.583 8.94496C114.828 9.93996 115.448 11.365 115.448 13.22V19.9899C115.448 20.2099 115.448 20.4349 115.453 20.6499C115.458 20.8699 115.483 21.0749 115.513 21.2799L117.228 21.5199V24.1799H111.728C111.623 23.8949 111.508 23.5949 111.398 23.2699C111.283 22.9449 111.208 22.6199 111.153 22.2999C110.628 22.9649 110.008 23.4999 109.293 23.8999C108.578 24.2999 107.743 24.4949 106.783 24.4999ZM107.968 21.22C108.583 21.22 109.168 21.0799 109.728 20.7999C110.283 20.5199 110.713 20.1599 111.018 19.7049V17.1049H108.833C107.858 17.1049 107.123 17.3299 106.618 17.7749C106.123 18.2199 105.868 18.755 105.868 19.38C105.868 19.965 106.058 20.4249 106.423 20.7399C106.798 21.0599 107.308 21.22 107.968 21.22Z" fill="#0052D5"/>
<path id="5" d="M118.563 24.18V21.52L120.703 21.065V3.625L118.338 3.17V0.5H125.133V21.065L127.273 21.52V24.18H118.563Z" fill="#0052D5"/>
<path id="6" d="M146.748 24.5C144.603 24.495 142.738 24.05 141.148 23.155C139.563 22.255 138.333 20.985 137.468 19.345C136.603 17.705 136.168 15.755 136.168 13.505V12.765C136.168 10.62 136.588 8.72002 137.423 7.06502C138.258 5.40502 139.448 4.11001 140.998 3.17001C142.548 2.23001 144.388 1.76001 146.523 1.76001C148.023 1.76001 149.423 1.97002 150.733 2.39502C152.043 2.82002 153.218 3.47001 154.253 4.34001V9.68001H150.958L150.503 6.33002C150.168 6.08502 149.803 5.88002 149.408 5.71002C149.013 5.53002 148.583 5.40001 148.123 5.31001C147.668 5.22001 147.163 5.17502 146.633 5.17502C145.378 5.17502 144.298 5.48502 143.398 6.10002C142.498 6.72002 141.808 7.59001 141.323 8.72001C140.843 9.85001 140.603 11.185 140.603 12.735V13.505C140.603 15.055 140.858 16.395 141.363 17.53C141.868 18.66 142.588 19.54 143.518 20.165C144.448 20.785 145.553 21.095 146.828 21.095C147.463 21.095 148.108 21.025 148.748 20.88C149.393 20.73 149.973 20.54 150.503 20.31L150.958 17.195H154.253V22.48C153.393 23.045 152.318 23.525 151.033 23.915C149.743 24.305 148.318 24.495 146.748 24.5Z" fill="#0052D5"/>
<path id="7" d="M156.148 24.18V21.52L158.288 21.065V3.625L155.923 3.17V0.5H162.703V9.85C163.223 9.09 163.863 8.5 164.623 8.08C165.388 7.66 166.258 7.45 167.228 7.45C168.878 7.45 170.183 8 171.153 9.095C172.118 10.195 172.603 11.895 172.603 14.19V21.065L174.728 21.52V24.18H166.258V21.52L168.168 21.065V14.16C168.168 12.975 167.948 12.14 167.498 11.64C167.053 11.145 166.403 10.895 165.543 10.895C164.948 10.895 164.403 11.02 163.908 11.27C163.423 11.515 163.018 11.88 162.703 12.355V21.065L164.613 21.52V24.18H156.148Z" fill="#0052D5"/>
<path id="8" d="M183.864 24.4999C182.294 24.4949 180.924 24.1549 179.749 23.4599C178.579 22.7649 177.669 21.8099 177.024 20.5999C176.384 19.3799 176.059 17.9999 176.059 16.4399V15.8299C176.059 14.1999 176.364 12.7549 176.974 11.4949C177.579 10.2349 178.439 9.24492 179.549 8.51992C180.659 7.79492 181.964 7.43991 183.469 7.44991C184.959 7.44991 186.204 7.74492 187.219 8.32992C188.234 8.91992 188.999 9.76491 189.529 10.8699C190.054 11.9699 190.314 13.3049 190.314 14.8749V17.2899H180.664L180.629 17.3749C180.694 18.0949 180.874 18.7399 181.169 19.2999C181.469 19.8599 181.889 20.2999 182.439 20.6199C182.984 20.9349 183.644 21.0949 184.429 21.0949C185.239 21.0949 185.994 20.9949 186.699 20.7849C187.399 20.5799 188.084 20.2749 188.754 19.8699L189.954 22.5999C189.274 23.1499 188.424 23.5999 187.394 23.9549C186.364 24.3199 185.189 24.4949 183.864 24.4999ZM180.694 14.3549H186.169V13.9599C186.169 13.2949 186.079 12.7249 185.904 12.2399C185.729 11.7599 185.444 11.3849 185.054 11.1199C184.669 10.8649 184.164 10.7299 183.549 10.7299C182.959 10.7299 182.464 10.8849 182.059 11.1949C181.649 11.4999 181.334 11.9249 181.109 12.4599C180.879 12.9999 180.729 13.6049 180.644 14.2849L180.694 14.3549Z" fill="#0052D5"/>
<path id="9" d="M200.093 24.4999C198.508 24.4949 197.148 24.1449 195.998 23.4349C194.853 22.7299 193.968 21.7499 193.348 20.4999C192.733 19.245 192.423 17.815 192.423 16.21V15.755C192.423 14.135 192.738 12.705 193.363 11.46C193.993 10.215 194.878 9.23496 196.023 8.51996C197.163 7.80496 198.508 7.44995 200.058 7.44995C201.538 7.44995 202.813 7.67996 203.878 8.14496C204.948 8.60496 205.813 9.13995 206.478 9.74495L206.448 14.4499H203.113L202.523 11.52C202.278 11.28 201.968 11.08 201.593 10.925C201.218 10.775 200.838 10.6999 200.453 10.6999C199.643 10.6999 198.973 10.9 198.443 11.31C197.908 11.715 197.513 12.2899 197.253 13.0399C196.988 13.7849 196.858 14.69 196.858 15.755V16.21C196.858 17.335 197.003 18.255 197.298 18.98C197.588 19.705 197.983 20.2349 198.473 20.5849C198.968 20.9249 199.513 21.095 200.123 21.095C200.898 21.095 201.528 20.8949 201.993 20.4849C202.463 20.0749 202.788 19.4949 202.973 18.7449H206.753L206.798 18.8349C206.628 19.9999 206.288 21.0099 205.773 21.8599C205.263 22.7099 204.548 23.36 203.618 23.815C202.693 24.275 201.513 24.4949 200.093 24.4999Z" fill="#0052D5"/>
<path id="10" d="M208.548 24.18V21.52L210.688 21.065V3.625L208.318 3.17V0.5H215.103V21.065L217.013 21.52V24.18H208.548ZM219.003 24.18V21.66L220.253 21.37L220.218 21.31L216.973 16.895L219.793 13.995L225.183 21.05L227.213 21.52V24.18H219.003ZM214.633 19.685L212.503 17.21L219.638 10.685L219.673 10.64L217.988 10.395V7.755H226.533V10.43L224.408 10.955L214.633 19.685Z" fill="#0052D5"/>
</g>
</svg>
