<svg width="60" height="60" viewBox="0 0 60 60" fill="none" xmlns="http://www.w3.org/2000/svg">
<g clip-path="url(#clip0_2204_5090)">
<path d="M45.6714 7.76717C46.1348 7.76717 46.5714 7.94671 46.8998 8.27422C47.2281 8.60173 47.4081 9.03729 47.4081 9.49946C47.4081 9.96162 47.2281 10.3972 46.8998 10.7247C46.5714 11.0522 46.1348 11.2318 45.6714 11.2318C45.2064 11.2318 44.7714 11.0522 44.4431 10.7247C44.1148 10.3972 43.9348 9.96162 43.9348 9.49946C43.9348 9.03563 44.1148 8.60173 44.4431 8.27422C44.7714 7.94838 45.2081 7.76717 45.6714 7.76717ZM45.6731 16.5849C46.0981 16.5849 46.4964 16.6664 46.8548 16.8276C47.2098 16.9872 47.5281 17.225 47.7964 17.5325C48.1014 17.8816 48.3431 18.3205 48.5164 18.8342C48.7198 19.4377 48.8214 20.1359 48.8214 20.904V22.9555C48.8214 23.1383 48.6714 23.288 48.4881 23.288H47.3581C47.1748 23.288 47.0248 23.4376 47.0248 23.6205V25.4492V28.5929C47.0248 28.7758 46.8748 28.9254 46.6914 28.9254H44.6531C44.4698 28.9254 44.3198 28.7758 44.3198 28.5929V25.4492V23.6205C44.3198 23.4376 44.1698 23.288 43.9864 23.288H42.8564C42.6731 23.288 42.5231 23.1383 42.5231 22.9555V20.904C42.5231 20.1343 42.6264 19.4377 42.8281 18.8326C43.0014 18.3189 43.2431 17.88 43.5481 17.5308C43.8164 17.2216 44.1348 16.9856 44.4898 16.826C44.8481 16.6664 45.2464 16.5849 45.6731 16.5849ZM45.6714 5.60596C43.5148 5.60596 41.7664 7.34989 41.7664 9.50112C41.7664 11.6524 43.5148 13.3963 45.6714 13.3963C47.8281 13.3963 49.5764 11.6524 49.5764 9.50112C49.5764 7.34989 47.8281 5.60596 45.6714 5.60596ZM45.6731 14.4237C42.7364 14.4237 40.3564 16.7711 40.3564 20.9057V23.7734C40.3564 24.6994 41.1081 25.4492 42.0364 25.4492H42.1531V29.6486C42.1531 30.4399 42.7998 31.0883 43.5964 31.0883H47.7464C48.5448 31.0883 49.1914 30.4432 49.1914 29.6469V25.4508H49.3081C50.2364 25.4508 50.9881 24.7011 50.9881 23.7801V20.9073C50.9898 16.7711 48.6081 14.4237 45.6731 14.4237Z" fill="black"/>
<path d="M10.3511 9.50112C10.3511 7.34989 12.0995 5.60596 14.2561 5.60596C16.4128 5.60596 18.1611 7.34989 18.1611 9.50112C18.1611 11.6524 16.4128 13.3963 14.2561 13.3963C12.0995 13.3963 10.3511 11.6524 10.3511 9.50112ZM14.2561 14.4237C11.3195 14.4237 8.93945 16.7711 8.93945 20.9057V23.7734C8.93945 24.6994 9.69112 25.4492 10.6195 25.4492H10.7361V29.6486C10.7361 30.4399 11.3828 31.0883 12.1795 31.0883H16.3295C17.1278 31.0883 17.7745 30.4432 17.7745 29.6469V25.4508H17.8911C18.8195 25.4508 19.5711 24.7011 19.5711 23.7801V20.9073C19.5728 16.7711 17.1911 14.4237 14.2561 14.4237Z" fill="#0052D5"/>
<path d="M26.0591 32.8322C26.0591 30.6809 27.8075 28.937 29.9641 28.937C32.1208 28.937 33.8691 30.6809 33.8691 32.8322C33.8691 34.9834 32.1208 36.7273 29.9641 36.7273C27.8075 36.7273 26.0591 34.9817 26.0591 32.8322ZM29.9641 37.7547C27.0275 37.7547 24.6475 40.1022 24.6475 44.2367V47.1045C24.6475 48.0305 25.3991 48.7802 26.3275 48.7802H26.4441V52.9796C26.4441 53.771 27.0908 54.4193 27.8875 54.4193H32.0375C32.8358 54.4193 33.4825 53.7743 33.4825 52.978V48.7819H33.5991C34.5275 48.7819 35.2791 48.0321 35.2791 47.1111V44.2384C35.2808 40.1021 32.8991 37.7547 29.9641 37.7547Z" fill="#0052D5"/>
<path d="M37.8799 15.1335C37.8832 15.1285 37.8882 15.1235 37.8915 15.1202C37.8999 15.1102 37.9065 15.1003 37.9149 15.0903C37.9215 15.082 37.9265 15.0737 37.9332 15.0653C37.9382 15.0587 37.9415 15.0537 37.9465 15.0471C37.9515 15.0387 37.9565 15.0321 37.9615 15.0238C37.9649 15.0188 37.9665 15.0155 37.9699 15.0105C37.9882 14.9806 38.0049 14.9506 38.0215 14.919C38.0232 14.9174 38.0232 14.9157 38.0249 14.9141C38.0299 14.9041 38.0349 14.8924 38.0399 14.8825C38.0415 14.8808 38.0415 14.8775 38.0432 14.8758C38.0582 14.8426 38.0699 14.8093 38.0815 14.7761C38.0832 14.7727 38.0832 14.7694 38.0849 14.7661C38.0882 14.7561 38.0915 14.7461 38.0932 14.7362C38.0949 14.7312 38.0965 14.7262 38.0965 14.7212C38.0982 14.7112 38.1015 14.7029 38.1032 14.6929C38.1049 14.683 38.1082 14.673 38.1099 14.663C38.1115 14.653 38.1132 14.6431 38.1149 14.6331C38.1165 14.6248 38.1182 14.6148 38.1199 14.6065C38.1215 14.5998 38.1215 14.5932 38.1232 14.5865C38.1249 14.5766 38.1265 14.5666 38.1265 14.555C38.1265 14.55 38.1282 14.545 38.1282 14.54C38.1299 14.525 38.1315 14.5084 38.1315 14.4934C38.1315 14.4918 38.1315 14.4901 38.1315 14.4885C38.1315 14.4735 38.1332 14.4602 38.1332 14.4452C38.1332 14.4419 38.1332 14.4369 38.1332 14.4336C38.1332 14.4203 38.1332 14.4087 38.1315 14.3954C38.1315 14.392 38.1315 14.3887 38.1315 14.3854C38.1299 14.3538 38.1265 14.3222 38.1232 14.2906C38.1232 14.2856 38.1215 14.2807 38.1215 14.2757C38.1199 14.2657 38.1182 14.2557 38.1165 14.2457C38.1149 14.2391 38.1149 14.2324 38.1132 14.2258C38.1115 14.2175 38.1099 14.2092 38.1082 14.2009C38.1049 14.1842 38.0999 14.1659 38.0949 14.1493C38.0949 14.146 38.0932 14.1443 38.0932 14.141C38.0899 14.131 38.0865 14.1194 38.0832 14.1094C38.0815 14.1061 38.0815 14.1028 38.0799 14.0994C38.0765 14.0878 38.0715 14.0778 38.0682 14.0662C38.0682 14.0645 38.0665 14.0629 38.0665 14.0612C38.0532 14.0246 38.0365 13.9881 38.0182 13.9515C38.0132 13.9398 38.0065 13.9299 38.0015 13.9182C37.9999 13.9166 37.9982 13.9132 37.9982 13.9116C37.9815 13.8833 37.9649 13.8551 37.9449 13.8268C37.9399 13.8201 37.9365 13.8152 37.9315 13.8085C37.9265 13.8019 37.9232 13.7969 37.9182 13.7902C37.9115 13.7819 37.9049 13.7736 37.8999 13.7653C37.8965 13.762 37.8932 13.757 37.8899 13.7537C37.8799 13.742 37.8699 13.7287 37.8582 13.7171C37.8565 13.7154 37.8532 13.7121 37.8515 13.7104C37.8415 13.7005 37.8315 13.6905 37.8215 13.6788C37.8199 13.6772 37.8182 13.6755 37.8165 13.6739L34.4215 10.2874C33.9982 9.86514 33.3132 9.86514 32.8899 10.2874C32.4665 10.7097 32.4665 11.3929 32.8899 11.8152L34.4349 13.3563H23.4915C22.8932 13.3563 22.4082 13.8401 22.4082 14.4369C22.4082 15.0338 22.8932 15.5175 23.4915 15.5175H34.4315L32.9232 17.0221C32.4999 17.4443 32.4999 18.1276 32.9232 18.5499C33.1349 18.761 33.4115 18.8657 33.6899 18.8657C33.9682 18.8657 34.2449 18.761 34.4565 18.5499L37.8149 15.2C37.8265 15.1884 37.8382 15.1767 37.8482 15.1634C37.8515 15.1601 37.8549 15.1551 37.8582 15.1518C37.8665 15.1501 37.8732 15.1418 37.8799 15.1335Z" fill="black"/>
<path d="M46.7748 34.1406C46.1765 34.1406 45.6915 34.6244 45.6915 35.2212V44.9517H40.6265L42.1348 43.4471C42.5581 43.0249 42.5581 42.3416 42.1348 41.9193C41.7115 41.497 41.0265 41.497 40.6031 41.9193L37.2448 45.2692C37.2331 45.2808 37.2215 45.2925 37.2115 45.3058C37.2081 45.3091 37.2048 45.3141 37.2015 45.3174C37.1948 45.3257 37.1865 45.334 37.1798 45.3423C37.1765 45.3473 37.1715 45.3523 37.1681 45.3556C37.1598 45.3656 37.1531 45.3756 37.1448 45.3856C37.1381 45.3939 37.1331 45.4022 37.1265 45.4105C37.1215 45.4171 37.1181 45.4221 37.1131 45.4288C37.1081 45.4371 37.1031 45.4437 37.0981 45.4521C37.0948 45.457 37.0931 45.4604 37.0898 45.4654C37.0715 45.4953 37.0548 45.5269 37.0381 45.5568C37.0365 45.5585 37.0365 45.5601 37.0348 45.5618C37.0298 45.5718 37.0248 45.5834 37.0198 45.5934C37.0181 45.595 37.0181 45.5984 37.0165 45.6C37.0015 45.6333 36.9898 45.6665 36.9781 45.6998C36.9765 45.7031 36.9765 45.7064 36.9748 45.7097C36.9715 45.7197 36.9681 45.7297 36.9665 45.7397C36.9648 45.7447 36.9631 45.7496 36.9631 45.7546C36.9615 45.7646 36.9581 45.7729 36.9565 45.7829C36.9548 45.7929 36.9515 45.8012 36.9498 45.8112C36.9481 45.8211 36.9465 45.8311 36.9431 45.8427C36.9415 45.8511 36.9398 45.861 36.9381 45.8693C36.9365 45.876 36.9365 45.8826 36.9348 45.8893C36.9331 45.8993 36.9315 45.9092 36.9315 45.9209C36.9315 45.9259 36.9298 45.9309 36.9298 45.9358C36.9281 45.9508 36.9265 45.9674 36.9265 45.9824C36.9265 45.9841 36.9265 45.9857 36.9265 45.9874C36.9265 46.0023 36.9248 46.0156 36.9248 46.0306C36.9248 46.0339 36.9248 46.0389 36.9248 46.0422C36.9248 46.0555 36.9248 46.0672 36.9265 46.0805C36.9265 46.0838 36.9265 46.0871 36.9265 46.0904C36.9281 46.122 36.9315 46.1536 36.9348 46.1852C36.9348 46.1902 36.9365 46.1952 36.9365 46.2002C36.9381 46.2101 36.9398 46.2201 36.9415 46.2301C36.9431 46.2367 36.9431 46.2434 36.9448 46.25C36.9465 46.2584 36.9481 46.2667 36.9498 46.275C36.9531 46.2916 36.9581 46.3099 36.9631 46.3265C36.9631 46.3298 36.9648 46.3315 36.9648 46.3348C36.9681 46.3448 36.9715 46.3564 36.9748 46.3664C36.9765 46.3697 36.9765 46.3731 36.9781 46.3764C36.9815 46.388 36.9865 46.398 36.9898 46.4096C36.9898 46.4113 36.9915 46.413 36.9915 46.413C37.0098 46.4612 37.0315 46.5094 37.0565 46.5559C37.0581 46.5576 37.0581 46.5609 37.0598 46.5626C37.0765 46.5909 37.0931 46.6191 37.1131 46.6474C37.1181 46.654 37.1215 46.659 37.1265 46.6657C37.1315 46.6723 37.1348 46.6773 37.1398 46.684C37.1465 46.6923 37.1515 46.7006 37.1581 46.7089C37.1615 46.7139 37.1648 46.7172 37.1681 46.7222C37.1781 46.7338 37.1881 46.7471 37.1998 46.7588C37.2015 46.7604 37.2048 46.7637 37.2065 46.7654C37.2165 46.7754 37.2265 46.7854 37.2365 46.7953C37.2381 46.797 37.2398 46.7987 37.2415 46.8003L40.6365 50.1868C40.8481 50.3979 41.1248 50.5026 41.4031 50.5026C41.6815 50.5026 41.9581 50.3979 42.1698 50.1868C42.5931 49.7645 42.5931 49.0812 42.1698 48.659L40.6248 47.1179H46.7731C47.3715 47.1179 47.8565 46.6341 47.8565 46.0372V35.2262C47.8581 34.6244 47.3731 34.1406 46.7748 34.1406Z" fill="black"/>
<path d="M22.0891 44.4527H15.5208V36.5494L17.0291 38.0539C17.4525 38.4762 18.1375 38.4762 18.5608 38.0539C18.9841 37.6316 18.9841 36.9484 18.5608 36.5261L15.2025 33.1762C15.1908 33.1646 15.1791 33.1529 15.1675 33.143C15.1641 33.1396 15.1591 33.1363 15.1558 33.1313C15.1475 33.1247 15.1391 33.1164 15.1308 33.1097C15.1258 33.1064 15.1208 33.1014 15.1158 33.0981C15.1058 33.0898 15.0975 33.0831 15.0875 33.0765C15.0791 33.0698 15.0691 33.0632 15.0608 33.0565C15.0558 33.0532 15.0491 33.0482 15.0441 33.0449C15.0358 33.0399 15.0275 33.0349 15.0191 33.0283C15.0141 33.0249 15.0108 33.0233 15.0058 33.0199C14.9758 33.0017 14.9441 32.9834 14.9125 32.9684C14.9108 32.9684 14.9091 32.9667 14.9091 32.9667C14.8975 32.9618 14.8875 32.9568 14.8758 32.9518C14.8741 32.9518 14.8725 32.9501 14.8708 32.9501C14.8375 32.9352 14.8025 32.9219 14.7691 32.9119C14.7658 32.9119 14.7641 32.9102 14.7608 32.9102C14.7508 32.9069 14.7408 32.9036 14.7291 32.9019C14.7241 32.9003 14.7208 32.9002 14.7158 32.8986C14.7058 32.8953 14.6958 32.8936 14.6858 32.8903C14.6841 32.8903 14.6825 32.8903 14.6825 32.8886C14.6641 32.8836 14.6441 32.8803 14.6258 32.877C14.6175 32.8753 14.6108 32.8737 14.6025 32.8737C14.5958 32.872 14.5891 32.872 14.5808 32.8703C14.5708 32.8687 14.5625 32.8687 14.5525 32.867C14.5475 32.867 14.5408 32.8653 14.5358 32.8653C14.5208 32.8637 14.5058 32.862 14.4908 32.862C14.4875 32.862 14.4858 32.862 14.4825 32.862C14.4691 32.862 14.4558 32.8604 14.4425 32.8604C14.4375 32.8604 14.4341 32.8604 14.4291 32.8604C14.4175 32.8604 14.4058 32.8604 14.3925 32.862C14.3891 32.862 14.3841 32.862 14.3808 32.862C14.3658 32.862 14.3491 32.8637 14.3341 32.8653C14.3325 32.8653 14.3325 32.8653 14.3308 32.8653C14.3158 32.867 14.3025 32.8687 14.2875 32.8703C14.2808 32.8703 14.2758 32.872 14.2691 32.8737C14.2591 32.8753 14.2508 32.877 14.2408 32.8786C14.2341 32.8803 14.2275 32.882 14.2191 32.882C14.2108 32.8836 14.2041 32.8853 14.1958 32.887C14.1758 32.8919 14.1558 32.8969 14.1358 32.9019C14.1241 32.9052 14.1141 32.9086 14.1025 32.9119C14.0991 32.9136 14.0975 32.9135 14.0941 32.9152C14.0825 32.9185 14.0708 32.9235 14.0591 32.9269C14.0575 32.9269 14.0575 32.9268 14.0558 32.9285C14.0075 32.9468 13.9591 32.9684 13.9125 32.9933C13.9108 32.995 13.9075 32.995 13.9058 32.9967C13.8775 33.0133 13.8491 33.0299 13.8208 33.0499C13.8141 33.0532 13.8091 33.0582 13.8025 33.0632C13.7958 33.0682 13.7908 33.0715 13.7841 33.0765C13.7758 33.0831 13.7675 33.0881 13.7591 33.0948C13.7541 33.0981 13.7508 33.1014 13.7458 33.1047C13.7341 33.1147 13.7208 33.1247 13.7091 33.1363C13.7075 33.138 13.7041 33.1413 13.7025 33.143C13.6925 33.1529 13.6825 33.1629 13.6725 33.1729C13.6708 33.1746 13.6691 33.1762 13.6675 33.1779L10.2775 36.5627C9.85413 36.9849 9.85413 37.6682 10.2775 38.0905C10.4891 38.3016 10.7658 38.4063 11.0441 38.4063C11.3225 38.4063 11.5991 38.3016 11.8108 38.0905L13.3558 36.5494V45.5334C13.3558 46.1302 13.8408 46.614 14.4391 46.614H22.0908C22.6891 46.614 23.1741 46.1302 23.1741 45.5334C23.1741 44.9365 22.6875 44.4527 22.0891 44.4527Z" fill="black"/>
</g>
<defs>
<clipPath id="clip0_2204_5090">
<rect width="60" height="60" fill="white"/>
</clipPath>
</defs>
</svg>
