<svg width="60" height="60" viewBox="0 0 60 60" fill="none" xmlns="http://www.w3.org/2000/svg">
<path d="M20 21L29.5 17L40 21L45 24L40 29L30 31.5L20 29L14.5 24L20 21Z" fill="#0052D5"/>
<path d="M49.1891 22.9297L30.5201 15.1033C30.3555 15.0351 30.1787 15 30 15C29.8213 15 29.6445 15.0351 29.4799 15.1033L10.8109 22.9297C10.5703 23.0299 10.3652 23.1971 10.221 23.4105C10.0769 23.6238 10 23.8739 10 24.1297C10 24.3855 10.0769 24.6356 10.221 24.8489C10.3652 25.0623 10.5703 25.2295 10.8109 25.3297L29.4799 33.1561C29.6445 33.2243 29.8213 33.2594 30 33.2594C30.1787 33.2594 30.3555 33.2243 30.5201 33.1561L43.335 27.782V43.6956C43.335 44.0416 43.4755 44.3733 43.7256 44.618C43.9757 44.8626 44.3149 45 44.6685 45C45.0222 45 45.3614 44.8626 45.6115 44.618C45.8616 44.3733 46.002 44.0416 46.002 43.6956V26.6602L49.1891 25.3558C49.4297 25.2556 49.6348 25.0884 49.779 24.875C49.9231 24.6617 50 24.4115 50 24.1558C50 23.9 49.9231 23.6499 49.779 23.4365C49.6348 23.2232 49.4297 23.056 49.1891 22.9557V22.9297ZM30 30.5343L14.718 24.1297L30 17.7251L45.282 24.1297L30 30.5343ZM42.0015 31.9561V38.6998C42.0027 38.9089 41.9524 39.1153 41.8549 39.3014C41.7575 39.4876 41.6156 39.6481 41.4415 39.7694C38.1429 42.2193 34.1404 43.5928 30 43.6956C25.8611 43.5965 21.8588 42.2277 18.5585 39.7824C18.3825 39.6599 18.2395 39.4973 18.142 39.3087C18.0444 39.1201 17.9952 38.9111 17.9985 38.6998V31.9561C17.9985 31.6101 18.139 31.2783 18.389 31.0337C18.6391 30.7891 18.9783 30.6517 19.332 30.6517C19.6856 30.6517 20.0248 30.7891 20.2749 31.0337C20.525 31.2783 20.6655 31.6101 20.6655 31.9561V38.0084C26.9463 42.1173 33.0537 42.1173 39.3345 38.0084V31.9561C39.3345 31.6101 39.475 31.2783 39.7251 31.0337C39.9752 30.7891 40.3144 30.6517 40.668 30.6517C41.0217 30.6517 41.3609 30.7891 41.611 31.0337C41.861 31.2783 42.0015 31.6101 42.0015 31.9561Z" fill="#0052D5" stroke="#0052D5" stroke-width="0.5"/>
</svg>
