<svg width="60" height="60" viewBox="0 0 60 60" fill="none" xmlns="http://www.w3.org/2000/svg">
<path d="M41.8816 54.4309V23.6252C41.8246 23.5909 41.7683 23.5536 41.7132 23.5138L29.8271 14.8774L17.9416 23.5132C17.8865 23.553 17.8307 23.5903 17.7732 23.6246V54.4303H22.7116V46.7234C22.7116 45.9023 23.3832 45.2307 24.2042 45.2307H29.036V54.4309H30.6187V45.2301H35.4505C36.2716 45.2301 36.9432 45.9017 36.9432 46.7228V54.4303L41.8816 54.4309ZM27.9983 41.4207C27.9983 41.6772 27.7883 41.8879 27.5311 41.8879H23.6593C23.4028 41.8879 23.1922 41.6779 23.1922 41.4207V37.5489C23.1922 37.2923 23.4022 37.0817 23.6593 37.0817H27.5311C27.7877 37.0817 27.9983 37.2917 27.9983 37.5489V41.4207ZM27.9983 33.164C27.9983 33.4205 27.7883 33.6311 27.5311 33.6311H23.6593C23.4028 33.6311 23.1922 33.4211 23.1922 33.164V29.2921C23.1922 29.0356 23.4022 28.825 23.6593 28.825H27.5311C27.7877 28.825 27.9983 29.035 27.9983 29.2921V33.164ZM29.8277 26.2897C27.6156 26.2897 25.8224 24.4964 25.8224 22.2844C25.8224 20.0723 27.6156 18.2791 29.8277 18.2791C32.0397 18.2791 33.833 20.0723 33.833 22.2844C33.833 24.4964 32.0397 26.2897 29.8277 26.2897ZM36.462 41.4207C36.462 41.6772 36.252 41.8879 35.9948 41.8879H32.123C31.8665 41.8879 31.6558 41.6779 31.6558 41.4207V37.5489C31.6558 37.2923 31.8658 37.0817 32.123 37.0817H35.9948C36.2514 37.0817 36.462 37.2917 36.462 37.5489V41.4207ZM36.462 33.164C36.462 33.4205 36.252 33.6311 35.9948 33.6311H32.123C31.8665 33.6311 31.6558 33.4211 31.6558 33.164V29.2921C31.6558 29.0356 31.8658 28.825 32.123 28.825H35.9948C36.2514 28.825 36.462 29.035 36.462 29.2921V33.164ZM30.6187 20.4293V22.2844C30.6187 22.5979 30.4369 22.8685 30.173 22.9964L29.3097 23.4948C28.9326 23.7134 28.4495 23.5848 28.2309 23.2076C28.0124 22.8305 28.1409 22.3474 28.5181 22.1289L29.036 21.8295V20.4287C29.036 19.9915 29.3905 19.6377 29.8271 19.6377C30.2642 19.6377 30.6187 19.9921 30.6187 20.4293ZM2.02441 25.3236V23.5383C2.02441 23.387 2.14809 23.264 2.2987 23.264H14.9734C15.3009 23.6013 15.7203 23.8254 16.1911 23.9111V25.5979H2.2987C2.14748 25.5979 2.02441 25.4748 2.02441 25.3236ZM16.1905 54.4309V27.1805H2.74135V54.4309H16.1905ZM7.06319 30.4058C7.06319 30.1493 7.27319 29.9387 7.53033 29.9387H11.4022C11.6587 29.9387 11.8693 30.1487 11.8693 30.4058V34.2776C11.8693 34.5342 11.6593 34.7448 11.4022 34.7448H7.53033C7.2738 34.7448 7.06319 34.5348 7.06319 34.2776V30.4058ZM7.06319 38.8695C7.06319 38.613 7.27319 38.4023 7.53033 38.4023H11.4022C11.6587 38.4023 11.8693 38.6123 11.8693 38.8695V42.7413C11.8693 42.9979 11.6593 43.2085 11.4022 43.2085H7.53033C7.2738 43.2085 7.06319 42.9985 7.06319 42.7413V38.8695ZM7.06319 47.3338C7.06319 47.0772 7.27319 46.8666 7.53033 46.8666H11.4022C11.6587 46.8666 11.8693 47.0766 11.8693 47.3338V51.2056C11.8693 51.4621 11.6593 51.6721 11.4022 51.6721H7.53033C7.2738 51.6721 7.06319 51.4621 7.06319 51.2056V47.3338ZM57.975 56.2879V58.0732C57.975 58.2244 57.8514 58.3475 57.7007 58.3475H2.2987C2.14748 58.3475 2.02441 58.2238 2.02441 58.0732V56.2879C2.02441 56.1366 2.14809 56.0136 2.2987 56.0136H57.7007C57.852 56.013 57.975 56.1366 57.975 56.2879ZM56.9134 27.1805H43.4642V54.4309H56.9134V27.1805ZM52.5916 51.2056C52.5916 51.4621 52.3816 51.6721 52.1244 51.6721H48.2526C47.996 51.6721 47.7854 51.4621 47.7854 51.2056V47.3338C47.7854 47.0772 47.9954 46.8666 48.2526 46.8666H52.1244C52.3809 46.8666 52.5916 47.0766 52.5916 47.3338V51.2056ZM52.5916 42.7413C52.5916 42.9979 52.3816 43.2085 52.1244 43.2085H48.2526C47.996 43.2085 47.7854 42.9985 47.7854 42.7413V38.8695C47.7854 38.613 47.9954 38.4023 48.2526 38.4023H52.1244C52.3809 38.4023 52.5916 38.6123 52.5916 38.8695V42.7413ZM52.5916 34.2776C52.5916 34.5342 52.3816 34.7448 52.1244 34.7448H48.2526C47.996 34.7448 47.7854 34.5348 47.7854 34.2776V30.4058C47.7854 30.1493 47.9954 29.9387 48.2526 29.9387H52.1244C52.3809 29.9387 52.5916 30.1487 52.5916 30.4058V34.2776ZM57.975 23.5383V25.3236C57.975 25.4742 57.8514 25.5979 57.7007 25.5979H43.4642V23.9105C43.935 23.8248 44.3544 23.6001 44.682 23.2634H57.7007C57.852 23.2634 57.975 23.387 57.975 23.5383ZM15.2244 20.9546C14.9997 20.6448 15.0689 20.2083 15.3787 19.9836L29.0116 10.0787C29.0195 10.0732 29.0275 10.067 29.0354 10.0615V2.44336C29.0354 2.00622 29.3899 1.65234 29.8265 1.65234C30.2636 1.65234 30.6175 2.00683 30.6175 2.44336V3.27357H35.8081L34.286 5.45132L35.8081 7.62908H30.6175V10.0615C30.634 10.0725 30.6499 10.0848 30.6658 10.0964L44.2754 19.9836C44.5852 20.2089 44.6544 20.6448 44.4297 20.9546L43.6154 22.0781C43.5028 22.2336 43.3509 22.3266 43.1612 22.3572C42.972 22.3872 42.7981 22.3456 42.6432 22.233L29.8271 12.9219L17.0109 22.233C16.856 22.3456 16.6822 22.3872 16.493 22.3572C16.3038 22.3272 16.1514 22.2336 16.0387 22.0781L15.2244 20.9546Z" fill="url(#paint0_linear_2209_5157)"/>
<defs>
<linearGradient id="paint0_linear_2209_5157" x1="29.9997" y1="1.65234" x2="29.9997" y2="58.3475" gradientUnits="userSpaceOnUse">
<stop stop-color="#0053D6"/>
<stop offset="1" stop-color="#013689"/>
</linearGradient>
</defs>
</svg>
