<svg width="60" height="60" viewBox="0 0 60 60" fill="none" xmlns="http://www.w3.org/2000/svg">
<path d="M39.9116 13.4327C39.9116 10.3517 39.9116 8.44548 39.9116 5.99028C36.0998 6.00348 32.8892 2.38428 25.6406 2.38428C25.6406 5.51388 25.6406 7.86528 25.6406 10.5683C32.7758 10.5677 35.4626 13.2725 39.9116 13.4327Z" fill="#013A93"/>
<path d="M57.7498 23.79H48.8308V16.6548H11.3692V23.79H2.4502V57.6834H57.7498V23.79ZM14.9368 20.223H45.2626V23.7912H14.9368V20.223ZM6.01779 54.1158V27.3582H54.1822V54.1158H6.01779Z" fill="black"/>
<path d="M13.1532 30.9263H9.58496V36.2777H13.1532V30.9263Z" fill="#0052D5"/>
<path d="M18.5047 30.9263H14.9365V36.2777H18.5047V30.9263Z" fill="#0052D5"/>
<path d="M23.8573 30.9263H20.2891V36.2777H23.8573V30.9263Z" fill="#0052D5"/>
<path d="M29.2088 30.9263H25.6406V36.2777H29.2088V30.9263Z" fill="#0052D5"/>
<path d="M34.5604 30.9263H30.9922V36.2777H34.5604V30.9263Z" fill="#0052D5"/>
<path d="M39.9119 30.9263H36.3438V36.2777H39.9119V30.9263Z" fill="#0052D5"/>
<path d="M45.2625 30.9263H41.6943V36.2777H45.2625V30.9263Z" fill="#0052D5"/>
<path d="M50.6151 30.9263H47.0469V36.2777H50.6151V30.9263Z" fill="#0052D5"/>
<path d="M13.1532 38.0615H9.58496V43.4129H13.1532V38.0615Z" fill="#0052D5"/>
<path d="M18.5047 38.0615H14.9365V43.4129H18.5047V38.0615Z" fill="#0052D5"/>
<path d="M23.8573 38.0615H20.2891V43.4129H23.8573V38.0615Z" fill="#0052D5"/>
<path d="M29.2088 38.0615H25.6406V43.4129H29.2088V38.0615Z" fill="#0052D5"/>
<path d="M34.5604 38.0615H30.9922V43.4129H34.5604V38.0615Z" fill="#0052D5"/>
<path d="M39.9119 38.0615H36.3438V43.4129H39.9119V38.0615Z" fill="#0052D5"/>
<path d="M45.2625 38.0615H41.6943V43.4129H45.2625V38.0615Z" fill="#0052D5"/>
<path d="M50.6151 38.0615H47.0469V43.4129H50.6151V38.0615Z" fill="#0052D5"/>
<path d="M13.1532 45.1968H9.58496V50.5482H13.1532V45.1968Z" fill="#0052D5"/>
<path d="M18.5047 45.1968H14.9365V50.5482H18.5047V45.1968Z" fill="#0052D5"/>
<path d="M23.8573 45.1968H20.2891V50.5482H23.8573V45.1968Z" fill="#0052D5"/>
<path d="M29.2088 45.1968H25.6406V50.5482H29.2088V45.1968Z" fill="#0052D5"/>
<path d="M34.5604 45.1968H30.9922V50.5482H34.5604V45.1968Z" fill="#0052D5"/>
<path d="M39.9119 45.1968H36.3438V50.5482H39.9119V45.1968Z" fill="#0052D5"/>
<path d="M45.2625 45.1968H41.6943V50.5482H45.2625V45.1968Z" fill="#0052D5"/>
<path d="M50.6151 45.1968H47.0469V50.5482H50.6151V45.1968Z" fill="#0052D5"/>
</svg>
