<svg width="24" height="20" viewBox="0 0 24 20" fill="none" xmlns="http://www.w3.org/2000/svg">
<g id="LinkedIn svg" clip-path="url(#clip0_810_1125)">
<path id="Path 2525" d="M22.5297 18.7088C22.5806 18.7093 22.631 18.6995 22.6778 18.6799C22.7246 18.6603 22.7669 18.6314 22.802 18.595C22.8371 18.5585 22.8642 18.5153 22.8817 18.4681C22.8993 18.4208 22.9068 18.3705 22.9038 18.3203C22.9038 18.0447 22.736 17.9131 22.3915 17.9131H21.835V19.3557H22.0443V18.7269H22.3015L22.3074 18.7345L22.7066 19.3557H22.9305L22.501 18.7128L22.5297 18.7088ZM22.2876 18.5643H22.0449V18.0766H22.3526C22.5115 18.0766 22.6927 18.1023 22.6927 18.3083C22.6927 18.5453 22.5093 18.5643 22.2864 18.5643" fill="black"/>
<path id="Path 2520" d="M17.0695 16.9012H14.1012V12.2984C14.1012 11.2009 14.0814 9.78796 12.5573 9.78796C11.0113 9.78796 10.7748 10.9838 10.7748 12.2185V16.9009H7.80641V7.43576H10.656V8.72927H10.6959C10.9811 8.24647 11.3932 7.8493 11.8883 7.58006C12.3834 7.31081 12.943 7.17958 13.5075 7.20032C16.516 7.20032 17.0707 9.15973 17.0707 11.7088L17.0695 16.9012ZM4.45714 6.14194C4.11645 6.142 3.78339 6.04203 3.50008 5.85466C3.21677 5.6673 2.99595 5.40096 2.86552 5.08933C2.73508 4.77769 2.7009 4.43476 2.76731 4.10389C2.83371 3.77303 2.99772 3.46909 3.23858 3.23052C3.47945 2.99194 3.78635 2.82944 4.12048 2.76357C4.45461 2.6977 4.80096 2.73142 5.11575 2.86045C5.43053 2.98949 5.69959 3.20805 5.88892 3.4885C6.07825 3.76895 6.17934 4.0987 6.1794 4.43603C6.17944 4.66002 6.13492 4.88181 6.04839 5.08876C5.96186 5.29571 5.83502 5.48376 5.6751 5.64216C5.51517 5.80057 5.32529 5.92624 5.11631 6.01199C4.90734 6.09774 4.68335 6.1419 4.45714 6.14194ZM5.94131 16.9012H2.96988V7.43576H5.94131V16.9012ZM18.5493 0.00135143H1.4783C1.09083 -0.00297804 0.717465 0.145182 0.44027 0.413275C0.163074 0.681368 0.00472879 1.04746 0 1.4311V18.4041C0.00456695 18.788 0.16282 19.1543 0.440005 19.4227C0.717191 19.691 1.09064 19.8395 1.4783 19.8354H18.5493C18.9378 19.8402 19.3123 19.6922 19.5905 19.4238C19.8688 19.1555 20.0281 18.7887 20.0335 18.4041V1.42988C20.028 1.04547 19.8685 0.678966 19.5903 0.41088C19.312 0.142794 18.9376 -0.00494354 18.5493 0.000126304" fill="black"/>
<path id="Path 2526" d="M22.3129 17.2705C21.9517 17.2739 21.6067 17.4189 21.3531 17.6735C21.0996 17.9282 20.9582 18.272 20.96 18.6296C20.9617 18.9872 21.1064 19.3295 21.3624 19.5818C21.6184 19.834 21.9649 19.9756 22.326 19.9756C22.6872 19.9756 23.0336 19.834 23.2896 19.5818C23.5456 19.3295 23.6903 18.9872 23.6921 18.6296C23.6938 18.272 23.5525 17.9282 23.2989 17.6735C23.0454 17.4189 22.7003 17.2739 22.3392 17.2705H22.3129ZM22.3129 19.8208C22.076 19.8247 21.8433 19.759 21.6441 19.6319C21.445 19.5048 21.2884 19.3222 21.1941 19.107C21.0998 18.8918 21.072 18.6537 21.1144 18.4229C21.1567 18.1921 21.2673 17.9789 21.432 17.8103C21.5967 17.6417 21.8082 17.5252 22.0397 17.4757C22.2713 17.4261 22.5125 17.4456 22.7329 17.5317C22.9532 17.6179 23.1428 17.7668 23.2777 17.9596C23.4126 18.1525 23.4867 18.3806 23.4906 18.6151C23.4906 18.6219 23.4906 18.6283 23.4906 18.635C23.4973 18.9427 23.3802 19.2404 23.1652 19.4627C22.9502 19.6849 22.6548 19.8135 22.3441 19.8202H22.3132" fill="black"/>
</g>
<defs>
<clipPath id="clip0_810_1125">
<rect width="23.6923" height="20" fill="white"/>
</clipPath>
</defs>
</svg>
