<svg width="1136" height="121" viewBox="0 0 1136 121" fill="none" xmlns="http://www.w3.org/2000/svg">
<path d="M0.971094 1.38916C0.971094 0.892103 1.37404 0.48916 1.87109 0.48916H119.869C120.366 0.48916 120.769 0.892104 120.769 1.38916V20.6746C120.769 21.4764 119.8 21.8779 119.233 21.311L115.747 17.8253C115.318 17.3957 114.621 17.3957 114.192 17.8253L90.8991 41.1179L66.8994 65.1175L43.6069 88.41C43.2554 88.7615 42.6855 88.7615 42.3341 88.41L19.0416 65.1175L7.54886 53.6248C7.11929 53.1952 6.42281 53.1952 5.99323 53.6248L2.50749 57.1105C1.94052 57.6775 0.971094 57.2759 0.971094 56.4741V1.38916ZM18.9002 113.258L24.3929 118.751C24.9599 119.318 24.5583 120.287 23.7565 120.287H1.87109C1.37404 120.287 0.971094 119.884 0.971094 119.387V97.502C0.971094 96.7002 1.94052 96.2986 2.50749 96.8656L18.9002 113.258ZM67.0408 113.258L91.0405 89.2585L115.04 65.2589L119.233 61.0661C119.8 60.4992 120.769 60.9007 120.769 61.7025V119.387C120.769 119.884 120.366 120.287 119.869 120.287H62.1844C61.3826 120.287 60.9811 119.318 61.548 118.751L67.0408 113.258Z" stroke="#D3D5DE" stroke-width="0.2"/>
<path d="M204.661 103.312L204.742 103.296V103.214V23.9149V23.8324L204.661 23.8168L192.993 21.5575V8.36514H204.642H245.467C253.93 8.36514 261.189 9.83811 267.298 12.805C273.383 15.7727 278.093 19.8606 281.381 25.1428C284.645 30.3996 286.266 36.5557 286.266 43.5896C286.266 50.5735 284.645 56.7296 281.381 61.9865C278.093 67.2687 273.383 71.3564 267.298 74.274C261.19 77.1661 253.93 78.6141 245.467 78.6141H226.817H226.717V78.7141V103.214V103.296L226.798 103.312L238.567 105.571V118.688H192.993V105.571L204.661 103.312ZM226.717 61.6394V61.7394H226.817H245.467C251.684 61.7394 256.39 60.0593 259.565 56.6577C262.734 53.2622 264.342 48.9619 264.342 43.7396C264.342 38.368 262.734 33.9682 259.566 30.4727C256.391 26.9703 251.685 25.2649 245.467 25.2649H226.817H226.717V25.3649V61.6394Z" stroke="#D3D5DE" stroke-width="0.2"/>
<path d="M311.343 114.979L311.343 114.978C305.535 111.464 301.098 106.554 298.031 100.27L298.031 100.27C294.939 93.9609 293.391 86.7516 293.391 78.5395V76.9645C293.391 68.8275 294.939 61.6181 298.031 55.334L298.031 55.3337C301.098 49.0504 305.535 44.14 311.293 40.5751C317.075 37.0117 323.981 35.2401 331.99 35.2401C340.151 35.2401 347.056 37.0118 352.813 40.5751L352.813 40.5752C358.596 44.1399 363.008 49.0504 366.075 55.3089C369.142 61.5682 370.715 68.7777 370.715 76.9645V78.5395C370.715 86.7514 369.142 93.9609 366.075 100.27C363.008 106.554 358.596 111.464 352.813 114.979L352.813 114.979C347.057 118.517 340.201 120.264 332.14 120.289C324.08 120.264 317.124 118.517 311.343 114.979ZM341.655 100.341L341.656 100.34C344.072 98.2507 345.906 95.3335 347.061 91.6189L347.061 91.6188C348.214 87.8824 348.815 83.5473 348.815 78.5395V76.9645C348.815 72.1064 348.214 67.8214 347.061 64.0604L347.061 64.0601C345.906 60.3456 344.072 57.4033 341.605 55.2889L341.605 55.2886C339.108 53.1701 335.934 52.1399 331.99 52.1399C328.196 52.1399 325.047 53.1706 322.526 55.2883L322.526 55.2886C320.034 57.4033 318.224 60.3461 317.095 64.0604C315.942 67.8218 315.366 72.1069 315.366 76.9645V78.5395C315.366 83.5466 315.941 87.9067 317.095 91.6434C318.224 95.4079 320.034 98.3261 322.527 100.391L322.527 100.391C325.049 102.459 328.248 103.464 332.14 103.464C336.034 103.464 339.183 102.434 341.655 100.341Z" stroke="#D3D5DE" stroke-width="0.2"/>
<path d="M437.101 35.5892C438.659 35.8084 440.027 36.0988 441.181 36.4139L438.876 56.6598L427.97 56.065L427.969 56.0649C424.806 55.9143 422.259 56.4663 420.263 57.6794L420.262 57.6797C418.297 58.889 416.563 60.6755 415.056 62.9597L415.04 62.9847V63.0147V103.214V103.295L415.119 103.312L425.64 105.57V118.689H382.44V105.57L392.986 103.312L393.065 103.295V103.214V52.3149V52.2323L392.984 52.2167L381.29 49.9574V36.7652H413.498L414.34 46.8481L414.34 46.8483L414.49 48.6731L414.522 49.0562L414.681 48.7064C416.701 44.2668 419.192 40.9068 422.151 38.6445L422.151 38.6444C425.131 36.3594 428.684 35.2401 432.79 35.2401C434.109 35.2401 435.554 35.3646 437.1 35.5891L437.101 35.5892Z" stroke="#D3D5DE" stroke-width="0.2"/>
<path d="M464.435 113.995L464.435 113.994C460.311 109.821 458.264 103.203 458.264 94.1148V52.2404V52.1404H458.164H446.939V36.7656H458.164H458.264V36.6656V16.6659H480.138V36.6656V36.7656H480.238H495.238V52.1404H480.238H480.138V52.2404V94.0398C480.138 97.2498 480.815 99.5571 482.192 100.96C483.539 102.333 485.417 103.04 487.738 103.04C488.969 103.04 490.298 102.914 491.724 102.739C493.077 102.594 494.268 102.402 495.252 102.186L497.154 118.041C494.881 118.68 492.437 119.221 489.822 119.641C487.153 120.065 484.558 120.264 481.988 120.289C474.381 120.264 468.511 118.17 464.435 113.995Z" stroke="#D3D5DE" stroke-width="0.2"/>
<path d="M510.621 82.423L510.621 82.4229C513.433 78.5165 517.566 75.4768 523.052 73.2573L523.052 73.2572C528.512 71.0385 535.273 69.9146 543.314 69.9146H554.164H554.264V69.8146V63.7647C554.264 59.794 553.107 56.568 550.762 54.0714L550.762 54.0711C548.437 51.62 544.957 50.3649 540.339 50.3649C537.98 50.3649 535.821 50.6912 533.912 51.2439L533.91 51.2442C532.001 51.8222 530.291 52.6517 528.757 53.7331L528.723 53.7574L528.716 53.7989L526.979 64.5647H511.214L510.941 43.398C515.219 40.9901 519.821 39.0276 524.819 37.5108C529.808 36.0141 535.398 35.2401 541.564 35.2401C552.274 35.2401 560.725 37.7366 566.927 42.6932C573.124 47.6458 576.214 54.7396 576.214 63.9897V97.8392V97.8462C576.214 98.9437 576.214 100.067 576.239 101.141C576.264 102.247 576.39 103.277 576.54 104.304L576.551 104.378L576.625 104.388L585.114 105.576V118.689H557.784C557.667 118.373 557.549 118.054 557.428 117.731C557.013 116.613 556.579 115.447 556.159 114.207L556.158 114.206C555.586 112.587 555.212 110.968 554.938 109.372L554.9 109.151L554.761 109.327C552.143 112.642 549.053 115.308 545.49 117.302C541.933 119.292 537.776 120.264 532.989 120.289C524.858 120.264 518.409 118.094 513.607 113.74C508.856 109.387 506.44 103.441 506.44 95.9392C506.44 90.8084 507.834 86.2795 510.621 82.423ZM547.759 101.979L547.759 101.978C550.547 100.572 552.711 98.7615 554.247 96.4699L554.264 96.4446V96.4142V83.4144V83.3144H554.164H543.239C538.35 83.3144 534.648 84.4426 532.098 86.6893L532.098 86.69C529.604 88.932 528.315 91.6331 528.315 94.7893C528.315 97.7371 529.273 100.067 531.124 101.665L531.125 101.665C533.023 103.285 535.598 104.089 538.914 104.089C542.005 104.089 544.945 103.385 547.759 101.979Z" stroke="#D3D5DE" stroke-width="0.2"/>
<path d="M590.863 13.6564V0.48916H624.637V103.213V103.294L624.716 103.31L635.337 105.569V118.687H591.988V105.569L602.608 103.31L602.687 103.294V103.213V16.0139V15.9313L602.606 15.9157L590.863 13.6564Z" stroke="#D3D5DE" stroke-width="0.2"/>
<path d="M686.275 33.2567L686.275 33.2566C690.442 24.9731 696.379 18.5124 704.113 13.8224C711.844 9.13354 721.026 6.78701 731.685 6.78701C739.176 6.78701 746.165 7.8357 752.704 9.95713C759.227 12.0733 765.079 15.3069 770.235 19.6334V46.1864H753.947L751.684 29.5233L751.679 29.4811L751.644 29.456C749.963 28.2264 748.132 27.1979 746.151 26.3453C744.168 25.4418 742.01 24.7898 739.705 24.3387C737.422 23.8872 734.891 23.6618 732.235 23.6618C725.943 23.6618 720.523 25.2163 716.004 28.3042L716.004 28.3044C711.487 31.4163 708.025 35.782 705.594 41.4471L705.594 41.4474C703.187 47.1125 701.986 53.8013 701.986 61.5612V65.4112C701.986 73.1719 703.263 79.8862 705.794 85.5765L705.794 85.5767C708.326 91.2419 711.938 95.6573 716.605 98.7937L716.605 98.7939C721.274 101.906 726.819 103.461 733.21 103.461C736.393 103.461 739.625 103.11 742.832 102.383L742.833 102.383C746.063 101.632 748.969 100.68 751.625 99.5274L751.676 99.5052L751.684 99.4501L753.947 83.9609H770.235V110.232C765.952 113.037 760.602 115.424 754.206 117.365C747.767 119.311 740.652 120.26 732.81 120.285C722.1 120.26 712.792 118.038 704.86 113.574C696.952 109.083 690.816 102.747 686.5 94.5641C682.184 86.3813 680.011 76.6482 680.011 65.4112V61.7112C680.011 50.9997 682.108 41.5156 686.275 33.2567Z" stroke="#D3D5DE" stroke-width="0.2"/>
<path d="M778.785 13.6564V0.48916H812.484V47.1385V47.4617L812.667 47.195C815.258 43.4071 818.447 40.4681 822.232 38.3761C826.041 36.2852 830.374 35.2386 835.209 35.2386C843.434 35.2386 849.93 37.9789 854.758 43.4295C859.56 48.9033 861.983 57.3745 861.983 68.8382V103.213V103.294L862.062 103.31L872.608 105.568V118.687H830.459V105.567L839.932 103.31L840.009 103.292V103.213V68.6882C840.009 62.756 838.908 58.5496 836.633 56.0215C834.384 53.5199 831.104 52.2634 826.784 52.2634C823.794 52.2634 821.054 52.8916 818.564 54.1491C816.123 55.3823 814.085 57.2193 812.501 59.608L812.484 59.6331V59.6633V103.213V103.292L812.561 103.31L822.034 105.567V118.687H779.91V105.569L790.53 103.31L790.609 103.294V103.213V16.0139V15.9313L790.528 15.9157L778.785 13.6564Z" stroke="#D3D5DE" stroke-width="0.2"/>
<path d="M950.533 84.235H902.384H902.317L902.291 84.297L902.117 84.722L902.107 84.7447L902.109 84.7691C902.435 88.3802 903.338 91.6182 904.82 94.4315L904.821 94.4321C906.329 97.248 908.442 99.4618 911.209 101.071L911.209 101.071C913.952 102.657 917.27 103.46 921.209 103.46C925.267 103.46 929.052 102.959 932.587 101.906C936.062 100.888 939.462 99.379 942.788 97.3792L948.711 110.855C945.332 113.574 941.112 115.803 936.001 117.565L936 117.565C930.863 119.386 925 120.26 918.384 120.285C910.549 120.26 903.717 118.563 897.86 115.099C892.026 111.633 887.489 106.872 884.273 100.838C881.081 94.754 879.459 87.8705 879.459 80.0852V77.0352C879.459 68.8979 880.982 61.6883 884.024 55.4041L884.024 55.4038C887.042 49.1196 891.33 44.184 896.864 40.5695C902.395 36.9567 908.9 35.1859 916.408 35.2358V35.2358H916.409C923.846 35.2358 930.052 36.7081 935.108 39.6222C940.165 42.5615 943.976 46.7708 946.618 52.2786C949.235 57.7617 950.533 64.421 950.533 72.2603V84.235ZM902.453 69.7184L902.482 69.7603H902.534H929.909H930.009V69.6603V67.6854C930.009 64.3516 929.557 61.4897 928.678 59.0515L928.678 59.0512C927.796 56.6332 926.359 54.7405 924.39 53.4028L924.389 53.4021C922.444 52.1136 919.898 51.4355 916.809 51.4355C913.841 51.4355 911.344 52.2157 909.299 53.7808C907.232 55.3181 905.647 57.4583 904.517 60.1465C903.363 62.8567 902.611 65.891 902.185 69.2979L902.18 69.3367L902.203 69.3684L902.453 69.7184Z" stroke="#D3D5DE" stroke-width="0.2"/>
<path d="M979.109 114.979L979.109 114.979C973.401 111.464 968.988 106.579 965.896 100.345C962.829 94.0858 961.282 86.9513 961.282 78.9395V76.6646C961.282 68.578 962.854 61.4439 965.971 55.2349C969.113 49.0257 973.526 44.1398 979.234 40.5749L979.235 40.5748C984.916 37.0114 991.622 35.2401 999.356 35.2401C1006.75 35.2401 1013.11 36.3887 1018.42 38.7068L1018.42 38.707C1023.74 40.9961 1028.04 43.6555 1031.36 46.659L1031.21 70.0396H1014.71L1011.78 55.4701L1011.77 55.44L1011.75 55.4184C1010.52 54.2083 1008.95 53.2017 1007.07 52.4225L1007.07 52.4221C1005.18 51.6676 1003.27 51.2899 1001.33 51.2899C997.264 51.2899 993.892 52.2942 991.22 54.3604C988.527 56.3993 986.542 59.2919 985.237 63.0566C983.907 66.7954 983.256 71.3323 983.256 76.6646V78.9395C983.256 84.5719 983.982 89.1858 985.464 92.8268C986.919 96.4651 988.904 99.1321 991.373 100.896L991.375 100.897C993.866 102.608 996.611 103.464 999.681 103.464C1003.57 103.464 1006.75 102.46 1009.1 100.389C1011.45 98.3369 1013.08 95.4424 1014.01 91.7143H1032.77L1032.95 92.0809C1032.1 97.8821 1030.41 102.908 1027.85 107.137L1027.84 107.138C1025.31 111.37 1021.75 114.607 1017.11 116.874L1017.11 116.874C1012.5 119.165 1006.62 120.264 999.531 120.289C991.621 120.264 984.84 118.517 979.109 114.979Z" stroke="#D3D5DE" stroke-width="0.2"/>
<path d="M1074.68 71.8374V0.38916H1040.66V13.7424L1052.51 16.0199V103.203L1041.82 105.481V118.787H1084.13V105.481L1074.58 103.203V94.4049L1085.57 84.5663L1100.15 104.417L1100.33 104.752L1094.1 106.186V118.787H1135.13V105.481L1124.97 103.134L1100.55 71.1206L1121.12 52.6574L1131.73 50.0214V36.6682H1089.02V49.8827L1097.45 51.085L1097.22 51.3625L1074.68 71.8374Z" stroke="#D3D5DE" stroke-width="0.2"/>
</svg>
