<svg width="24" height="24" viewBox="0 0 24 24" fill="none" xmlns="http://www.w3.org/2000/svg">
<path d="M8.11967 9.29007L11.9997 13.1701L15.8797 9.29007C15.9723 9.19749 16.0822 9.12405 16.2031 9.07394C16.3241 9.02384 16.4537 8.99805 16.5847 8.99805C16.7156 8.99805 16.8452 9.02384 16.9662 9.07394C17.0872 9.12405 17.1971 9.19749 17.2897 9.29007C17.3823 9.38265 17.4557 9.49256 17.5058 9.61352C17.5559 9.73449 17.5817 9.86414 17.5817 9.99507C17.5817 10.126 17.5559 10.2556 17.5058 10.3766C17.4557 10.4976 17.3823 10.6075 17.2897 10.7001L12.6997 15.2901C12.6072 15.3828 12.4973 15.4563 12.3763 15.5065C12.2553 15.5567 12.1256 15.5825 11.9947 15.5825C11.8637 15.5825 11.734 15.5567 11.613 15.5065C11.4921 15.4563 11.3822 15.3828 11.2897 15.2901L6.69967 10.7001C6.60697 10.6076 6.53342 10.4977 6.48324 10.3767C6.43306 10.2557 6.40723 10.126 6.40723 9.99507C6.40723 9.8641 6.43306 9.73442 6.48324 9.61344C6.53342 9.49247 6.60697 9.38258 6.69967 9.29007C7.08967 8.91007 7.72967 8.90007 8.11967 9.29007Z" fill="#000"/>
</svg>
