<svg width="60" height="60" viewBox="0 0 60 60" fill="none" xmlns="http://www.w3.org/2000/svg">
<g clip-path="url(#clip0_2204_5108)">
<path d="M5.00008 15.0524H55.0001C55.5801 15.0524 56.0851 14.6549 56.2145 14.0899C56.3501 13.5224 56.0751 12.9449 55.5576 12.6824L30.4557 0.0799431C30.1032 -0.0975569 29.6857 -0.0950569 29.3307 0.0799431L4.43258 12.6849C3.91758 12.9474 3.64758 13.5299 3.78258 14.0924C3.91758 14.6549 4.42258 15.0524 5.00008 15.0524Z" fill="black"/>
<path d="M7.5 17.5527H15V40.0527H7.5V17.5527Z" fill="#0052D5"/>
<path d="M25 17.5527H35V40.0527H25V17.5527Z" fill="#0052D5"/>
<path d="M45 17.5527H52.5V40.0527H45V17.5527Z" fill="#0052D5"/>
<path d="M5 43.8027V47.5527H55V43.8027C55 43.1127 54.4375 42.5527 53.75 42.5527H6.25C5.56 42.5527 5 43.1127 5 43.8027Z" fill="black"/>
<path d="M58.75 50.0527H1.25C0.56 50.0527 0 50.6127 0 51.3027V58.8027C0 59.4902 0.56 60.0527 1.25 60.0527H58.75C59.4375 60.0527 60 59.4902 60 58.8027V51.3027C60 50.6127 59.4375 50.0527 58.75 50.0527Z" fill="black"/>
</g>
<defs>
<clipPath id="clip0_2204_5108">
<rect width="60" height="60" fill="white"/>
</clipPath>
</defs>
</svg>
